<?xml version="1.0" encoding="UTF-8"?>
<svg data-bbox="134.2 216.7 573.5 161.8" viewBox="0 0 841.9 595.3" xmlns="http://www.w3.org/2000/svg" data-type="ugc">
    <g>
        <path d="M617.6 324.1v-.7c-.1-8.4-2.1-24.7-6-33.1-3.9-8.4-5.9-14.8-11.4-17-5.4-2.2-27.5-7.6-30.4-8.8-3-1.1-17.3-4.2-19.3-5.7s-2.5-4.4-2.6-8.8c-.1-4.4 1.4-17.9 1.1-18.9-.3-1-9.1-12-10.4-12.4-1.3-.4-5.5 11.2-6.4 11.8-.9.6-2.5.2-2.8-2.5-.3-2.8-.5-10.2-.9-11.1 0-.1-.2-.2-.6-.2-2.2 0-9.9 2.9-12.5 8.9-3 6.9-2.7 13.6 0 22.7s4.4 11.1-.6 13.3c-5 2.2-48.7 18.8-48.7 18.8s-20.9 8.6-22.3 17.2c-1.4 8.7-1.3 18.6-1.5 20.3s-5.4 10.5-13.8 5.4c-8.3-5-26.3-22.1-31.4-25.3-5-3.1-10.6-9.2-21.9-3.9-11.3 5.2-29.7 19.7-37.5 23.7s-22.5 10.3-27.5 11.5c-4.9 1.2-10.3 4-11.4 5.2-3.2 0-17.9 1.1-21-.4s-7.5-8.4-12.9-7.2c-5.4 1.2-17.5 10.6-19.3 21.5-1.8 10.9-.7 22.6 0 25.3.7 2.7 18.5 4.2 20.5.7s4.9-6.4 7.1-6.8c2.1-.4 10.5 6.8 14.3 7.3 3.8.6 11.6 1.4 12.6-.9s0-8.3-1.1-11.3c2.8 2.5 9.7 5.3 14.9 3.3 5.2-2 15.4-14.2 18-21.9 2.6-7.7 17.3-15.5 23.2-18.5s15.3-.4 21.8-.4 12.6-2.4 18.2-3.9c4.7 5.5 4 4.2 4.9 6.5.9 2.3 3.7 5-2.9 8.8-6.6 3.8-13.4 8.6-14.8 11.1-1.3 2.5-2.8 5.1 2.2 9.9 4.9 4.8 12.2 12.3 17.8 15 8.5 3.9 30.7 5.9 52.6 5.9h.3c24.8 0 49.1-2.4 52.8-7 0 0 22.8-24.1 28.3-36.9 2.9-4.9-.1-11.3-.1-11.3s21.1-19.8 24.7-22.7c3.6-2.9 11.8-7.6 22.5-3.8 10.8 3.8 15.1 11.2 18.3 25 3.2 13.8 3.1 44.2 3.7 48.3.4 2.4 9.3 2.6 9.3-1.1 0-3.6 2.6-34.9 2.7-44.6v-.3zm-98.5-23.4c-1.5.1-15.7 3.8-15.7 3.8-13.8 7.3-47.2 16.3-49.3 16.3 0 0-.9.6-.5-8.3s2.7-11.8 4.9-13.4 20.2-10.8 41.9-8.9c9.2 11.4 10.9 9.7 12.3 9.6 1.4-.1 7.9-6.2 7.9-6.2s-.8 5.1-1.5 7.1z" fill="#ffffff"/>
        <path fill="none" stroke="#ffffff" stroke-width="9" stroke-linecap="round" stroke-miterlimit="10" d="M134.2 374.7h573.5"/>
    </g>
</svg>
